#!OML:ASF X:\für Bonn\!DataBase\2005_08_10_Bjorn_Final\c3d\bjorn.ASF
:FULLY-SPECIFIED
:DEGREES
65
root 0.777625 19.5206 4.26955 -200.075 -43.3708 191.126
lowerback 23.6032 -0.469893 -5.67879
upperback 19.4688 -5.72967 0.293676
thorax 9.46882 -5.31242 4.04033
lowerneck -15.2242 -5.07889 -2.24583
upperneck 7.35948 -7.22886 7.01223
head 5.03194 -3.18216 1.90832
rclavicle 4.13472e-014 3.18055e-015
rhumerus -37.5498 -6.90062 -86.0487
rradius 19.8131
rwrist 21.4755
rhand -4.67457 12.6442
rfingers 7.12502
rthumb 21.1061 -16.2271
lclavicle 4.13472e-014 3.18055e-015
lhumerus 41.6935 -10.1967 73.4716
lradius 92.2688
lwrist -12.9512
lhand -47.1526 -22.679
lfingers 7.12502
lthumb -19.854 6.3269
rfemur -62.9137 -7.62325 16.9553
rtibia 117.412
rfoot -2.15988 14.2126
rtoes -15.6125
lfemur 4.1352 -8.33548 -13.0921
ltibia 15.4727
lfoot 7.42557 -25.8582
ltoes 19.2999
66
root 0.812014 19.5297 4.27206 -201.216 -44.0741 192.152
lowerback 24.501 -0.601173 -5.41698
upperback 19.7183 -6.03305 0.371921
thorax 9.37583 -5.50333 4.07581
lowerneck -15.3339 -5.14118 -2.41157
upperneck 7.17428 -7.36827 7.70685
head 5.03547 -3.2205 2.13542
rclavicle 5.725e-014 5.56597e-014
rhumerus -37.594 -6.517 -86.1177
rradius 19.9168
rwrist 21.0662
rhand -4.60996 12.4586
rfingers 7.12502
rthumb 21.1681 -16.4057
lclavicle 5.725e-014 5.56597e-014
lhumerus 44.2503 -10.4207 74.0171
lradius 93.2349
lwrist -12.39
lhand -47.3902 -22.7693
lfingers 7.12502
lthumb -20.0824 6.21277
rfemur -64.7213 -8.32456 17.0546
rtibia 118.911
rfoot -2.02645 14.9851
rtoes -15.7034
lfemur 4.52281 -8.88754 -12.5155
ltibia 15.0997
lfoot 8.00917 -25.9819
ltoes 19.7654
67
root 0.845052 19.5389 4.27425 -202.374 -44.731 193.189
lowerback 25.3861 -0.736596 -5.12164
upperback 19.9633 -6.3278 0.428066
thorax 9.28164 -5.68365 4.07153
lowerneck -15.4167 -5.20261 -2.51722
upperneck 7.01661 -7.51225 8.33458
head 5.03999 -3.2642 2.33205
rclavicle 4.77083e-015 5.40694e-014
rhumerus -37.6204 -6.42379 -86.06
rradius 19.9119
rwrist 20.9693
rhand -4.53092 12.3904
rfingers 7.12502
rthumb 21.2441 -16.4654
lclavicle 4.77083e-015 5.40694e-014
lhumerus 46.7131 -10.7514 74.447
lradius 94.265
lwrist -11.7249
lhand -47.6689 -22.9998
lfingers 7.12502
lthumb -20.3502 5.95397
rfemur -66.4782 -9.02391 17.144
rtibia 120.288
rfoot -1.87936 15.7481
rtoes -15.64
lfemur 4.89455 -9.47368 -11.9629
ltibia 14.759
lfoot 8.48975 -26.0965
ltoes 20.1054
68
root 0.876844 19.5476 4.27644 -203.501 -45.3239 194.229
lowerback 26.239 -0.872296 -4.82821
upperback 20.182 -6.60752 0.489795
thorax 9.17482 -5.85299 4.0771
lowerneck -15.4706 -5.26695 -2.65698
upperneck 6.85705 -7.6546 8.97122
head 5.04231 -3.30915 2.53756
rclavicle -6.52014e-014 -9.54166e-015
rhumerus -37.6713 -6.27986 -85.9668
rradius 19.8942
rwrist 20.86
rhand -4.48839 12.4165
rfingers 7.12502
rthumb 21.2849 -16.4347
lclavicle -6.52014e-014 -9.54166e-015
lhumerus 49.0749 -11.1604 74.8572
lradius 95.2681
lwrist -11.0452
lhand -47.9682 -23.1773
lfingers 7.12502
lthumb -20.6379 5.74553
rfemur -68.2285 -9.67172 17.2419
rtibia 121.531
rfoot -1.62679 16.4052
rtoes -15.2016
lfemur 5.22295 -10.0874 -11.4219
ltibia 14.437
lfoot 8.92687 -26.1373
ltoes 20.3936
69
root 0.90791 19.555 4.27725 -204.649 -45.8701 195.32
lowerback 27.091 -1.01956 -4.52206
upperback 20.7009 -6.91965 0.672211
thorax 8.74825 -6.01821 4.03389
lowerneck -15.5578 -5.32327 -2.81641
upperneck 6.70116 -7.7804 9.58962
head 5.05155 -3.34762 2.74147
rclavicle 2.8625e-014 -1.59028e-015
rhumerus -37.6866 -6.15068 -85.8306
rradius 19.8327
rwrist 20.7818
rhand -4.41576 12.5388
rfingers 7.12502
rthumb 21.3547 -16.3045
lclavicle 2.8625e-014 -1.59028e-015
lhumerus 51.4287 -11.6049 75.211
lradius 96.1922
lwrist -10.3588
lhand -48.2845 -23.2884
lfingers 7.12502
lthumb -20.9418 5.60111
rfemur -69.9086 -10.2971 17.4051
rtibia 122.659
rfoot -1.43923 16.9043
rtoes -15.2591
lfemur 5.20464 -10.7179 -10.847
ltibia 14.7445
lfoot 9.0256 -26.2481
ltoes 20.7069
70
root 0.936242 19.5606 4.27872 -205.74 -46.3483 196.384
lowerback 27.8596 -1.16064 -4.20706
upperback 20.8932 -7.18003 0.754967
thorax 8.65216 -6.17113 4.03695
lowerneck -15.5735 -5.38752 -2.99953
upperneck 6.52888 -7.91431 10.2326
head 5.04817 -3.39265 2.95758
rclavicle 4.92986e-014 7.95139e-015
rhumerus -37.7509 -6.02428 -85.6582
rradius 19.7883
rwrist 20.7501
rhand -4.37713 12.7227
rfingers 7.12502
rthumb 21.3918 -16.1164
lclavicle 4.92986e-014 7.95139e-015
lhumerus 53.6902 -12.1182 75.5544
lradius 97.0529
lwrist -9.82249
lhand -48.6416 -23.1789
lfingers 7.12502
lthumb -21.2848 5.6723
rfemur -71.5439 -10.8391 17.5823
rtibia 123.639
rfoot -1.25132 17.1995
rtoes -15.4043
lfemur 5.12239 -11.3771 -10.3054
ltibia 15.1073
lfoot 9.10689 -26.2775
ltoes 21.1465
71
root 0.960827 19.5138 4.27152 -206.784 -46.7675 197.387
lowerback 28.6038 -1.28898 -3.94433
upperback 21.073 -7.42602 0.829207
thorax 8.5604 -6.32119 4.05836
lowerneck -15.4637 -5.43017 -3.19301
upperneck 6.24099 -8.01089 10.8942
head 4.98873 -3.42853 3.18811
rclavicle 2.38542e-014 -1.43125e-014
rhumerus -37.8408 -5.86971 -85.4515
rradius 19.7278
rwrist 20.8101
rhand -4.3427 12.9945
rfingers 7.12502
rthumb 21.4248 -15.8408
lclavicle 2.38542e-014 -1.43125e-014
lhumerus 55.8625 -12.5928 75.8715
lradius 97.8085
lwrist -9.37344
lhand -48.8942 -22.9197
lfingers 7.12502
lthumb -21.5274 5.90398
rfemur -73.5169 -11.4788 17.6891
rtibia 124.851
rfoot -0.7847 17.5381
rtoes -14.938
lfemur 4.97976 -11.9864 -9.79532
ltibia 15.5907
lfoot 8.99194 -26.3948
ltoes 21.2384
